<?xml version="1.0" encoding="UTF-8"?>
<svg width="24px" height="24px" viewBox="0 0 24 24" version="1.1">
    <g stroke="none" stroke-width="1" fill="none" fill-rule="evenodd" stroke-linecap="round" stroke-linejoin="round">
        <path
            d="M3,17.5888345 C7.92517573,17.5848421 12.8289327,18.2371162 17.5818462,19.5284598 C18.2529231,19.71125 18.9230769,19.2127313 18.9230769,18.5166516 L18.9230769,17.5888345 M4.38461538,4.43349907 L4.38461538,5.12588612 C4.38461538,5.50828092 4.07465867,5.81827316 3.69230769,5.81827316 L3,5.81827316 M3,5.81827316 L3,5.47207964 C3,4.89878317 3.46523077,4.43349907 4.03846154,4.43349907 L19.6153846,4.43349907 M3,5.81827316 L3,14.1269177 M19.6153846,4.43349907 L19.6153846,5.12588612 C19.6153846,5.50808377 19.9255385,5.81827316 20.3076923,5.81827316 L21,5.81827316 M19.6153846,4.43349907 L19.9615385,4.43349907 C20.5347692,4.43349907 21,4.89878317 21,5.47207964 L21,14.4731112 C21,15.0464077 20.5347692,15.5116918 19.9615385,15.5116918 L19.6153846,15.5116918 M21,14.1269177 L20.3076923,14.1269177 C19.9253413,14.1269177 19.6153846,14.4369099 19.6153846,14.8193047 L19.6153846,15.5116918 M19.6153846,15.5116918 L4.38461538,15.5116918 M4.38461538,15.5116918 L4.03846154,15.5116918 C3.46493507,15.5116918 3,15.0467034 3,14.4731112 L3,14.1269177 M4.38461538,15.5116918 L4.38461538,14.8193047 C4.38461538,14.4369099 4.07465867,14.1269177 3.69230769,14.1269177 L3,14.1269177 M14.7692308,9.97259543 C14.7692308,11.5021747 13.5294039,12.7421436 12,12.7421436 C10.4705961,12.7421436 9.23076923,11.5021747 9.23076923,9.97259543 C9.23076923,8.44301621 10.4705961,7.20304725 12,7.20304725 C13.5294039,7.20304725 14.7692308,8.44301621 14.7692308,9.97259543 L14.7692308,9.97259543 Z"
            stroke="currentcolor" stroke-width="1.75"></path>
    </g>
</svg>