<?xml version="1.0" encoding="UTF-8"?>
<svg width="24px" height="24px" viewBox="0 0 24 24" version="1.1" xmlns="http://www.w3.org/2000/svg" xmlns:xlink="http://www.w3.org/1999/xlink">
    <path stroke="currentColor" stroke-width="2" fill="none" fill-rule="evenodd" stroke-linecap="round" stroke-linejoin="round" d="M4.046,8.223 C3.11045529,9.32717695 2.41381556,10.6132025 2,12 C3.292,16.338 7.31,19.5 12.066,19.5 C13.059,19.5 14.019,19.362 14.929,19.105 M6.294,6.228 C8.00662064,5.09780671 10.014075,4.49682245 12.066,4.49998746 C16.822,4.49998746 20.839,7.662 22.131,11.998 C21.4228818,14.3672982 19.9029801,16.4115359 17.838,17.772 M6.294,6.228 L3.066,3 M6.294,6.228 L9.944,9.878 M17.838,17.772 L21.066,21 M17.838,17.772 L14.188,14.122 M14.188,14.122 C14.945939,13.3640611 15.2419479,12.259341 14.964523,11.2239771 C14.6870981,10.1886132 13.8783868,9.37990194 12.8430229,9.10247703 C11.807659,8.82505213 10.7029389,9.12106101 9.945,9.879 M14.187,14.121 L9.946,9.88" id="Shape"></path>
</svg>