<?xml version="1.0" encoding="UTF-8"?>
<svg width="24px" height="24px" viewBox="0 0 24 24" version="1.1" xmlns="http://www.w3.org/2000/svg" xmlns:xlink="http://www.w3.org/1999/xlink">
    <g id="Icons-/-eyes" stroke="none" stroke-width="1" fill="none" fill-rule="evenodd" stroke-linecap="round" stroke-linejoin="round">
        <g id="Group" transform="translate(2, 5)" stroke="currentColor" stroke-width="2">
            <path d="M0.0517584939,7.822 C-0.0172528313,7.61458986 -0.0172528313,7.39041014 0.0517584939,7.183 C1.43875849,3.01 5.37575849,0 10.0157585,0 C14.6537585,0 18.5887585,3.007 19.9787585,7.178 C20.0487585,7.385 20.0487585,7.609 19.9787585,7.817 C18.5927585,11.99 14.6557585,15 10.0157585,15 C5.37775849,15 1.44275849,11.993 0.0527584939,7.822 L0.0517584939,7.822 Z" id="Path"></path>
            <path d="M13.0157585,7.5 C13.0157585,9.15685425 11.6726127,10.5 10.0157585,10.5 C8.35890424,10.5 7.01575849,9.15685425 7.01575849,7.5 C7.01575849,5.84314575 8.35890424,4.5 10.0157585,4.5 C11.6726127,4.5 13.0157585,5.84314575 13.0157585,7.5 L13.0157585,7.5 Z" id="Path"></path>
        </g>
    </g>
</svg>