<?xml version="1.0" encoding="UTF-8"?>
<svg width="24px" height="24px" viewBox="0 0 24 24" version="1.1">
    <g stroke="none" stroke-width="1" fill="none" fill-rule="evenodd" stroke-linecap="round" stroke-linejoin="round">
        <path
            d="M14.7697206,18.579433 C15.5570525,18.8080304 16.372862,18.9236423 17.192708,18.922814 C18.5111849,18.9247121 19.8125225,18.6240877 20.9965674,18.0440682 C21.0684905,16.344199 20.0039311,14.8029196 18.3886965,14.2683677 C16.773462,13.7338157 14.9996212,14.335744 14.0432859,15.7429225 M14.7697206,18.579433 L14.7697206,18.5766639 C14.7697206,17.5493173 14.5066534,16.5828914 14.044209,15.7429225 M14.7697206,18.579433 L14.7697206,18.6772756 C12.993306,19.7471695 10.9581184,20.3108679 8.88439967,20.3073854 C6.73278687,20.3073854 4.7196305,19.7120066 3.00092479,18.6772756 L3.00000087,18.5766639 C2.99854477,15.8889217 4.81842955,13.5417752 7.42182785,12.8737351 C10.0252262,12.2056949 12.7504104,13.3865623 14.0432859,15.7429225 M12.0005922,6.80786807 C12.0005922,8.5283839 10.6058385,9.92313756 8.88532271,9.92313756 C7.16480688,9.92313756 5.77005322,8.5283839 5.77005322,6.80786807 C5.77005322,5.08735225 7.16480688,3.69259859 8.88532271,3.69259859 C10.6058385,3.69259859 12.0005922,5.08735225 12.0005922,6.80786807 Z M19.6156954,8.8847144 C19.6156954,10.2228934 18.530887,11.3077018 17.192708,11.3077018 C15.854529,11.3077018 14.7697206,10.2228934 14.7697206,8.8847144 C14.7697206,7.54653542 15.854529,6.46172702 17.192708,6.46172702 C18.530887,6.46172702 19.6156954,7.54653542 19.6156954,8.8847144 L19.6156954,8.8847144 Z"
            id="Shape" stroke="currentcolor" stroke-width="1.75"></path>
    </g>
</svg>