<?xml version="1.0" encoding="UTF-8"?>
<svg width="199px" height="36px" viewBox="0 0 199 36" version="1.1" xmlns="http://www.w3.org/2000/svg" xmlns:xlink="http://www.w3.org/1999/xlink">
    <g id="Icon-/-Logo-/-Text" stroke="none" stroke-width="1" fill="none" fill-rule="evenodd">
        <g id="Icon-/-Logo" transform="translate(-0.2063, 0)" fill="currentcolor" fill-rule="nonzero">
            <path d="M46,15.4295481 L36.0941801,15.4295481 C36.0941801,13.993813 34.9213707,12.8306165 33.4737706,12.8306165 C32.3515927,12.8306165 31.3944275,13.5311365 31.0238971,14.5149232 C30.914349,14.7995594 30.8552022,15.106793 30.8552022,15.4295481 L30.8552022,26.0494225 C30.6637231,26.5205445 30.44969,26.9795689 30.2131029,27.4248978 C28.285194,31.0799735 24.9672208,33.8996293 20.9530645,35.1904214 L20.9530645,15.7504771 C20.9512234,15.6434247 20.9496124,15.5366005 20.9496124,15.4295481 C20.9496124,12.8411163 21.748209,10.437116 23.1141084,8.44740177 C23.5543722,7.80371768 24.0553937,7.20500017 24.6070468,6.65604264 L24.6088879,6.65604264 C26.8760277,4.4006375 30.0096564,3.0062169 33.4740007,3.0062169 C40.3921027,3.0062169 46,8.5681496 46,15.4295481 L46,15.4295481 Z" id="Path"></path>
            <path d="M20.9496124,35.228953 C19.403326,35.7206174 17.7540767,35.9861847 16.0421743,35.9861847 C13.1200547,35.9861847 10.3805963,35.2116136 8.020972,33.8611905 C3.22524984,31.1135736 0,25.9785894 0,20.0966403 C0,19.9449202 0.00184273666,19.7929719 0.00691026247,19.643077 L0,19.643077 L0,0 C4.027992,0 7.49348863,2.37869753 9.0450729,5.79388296 C9.27495429,6.29763935 9.46291343,6.82352635 9.60411313,7.36698093 C9.80796587,8.15181879 9.91576597,8.97452964 9.91576597,9.82142444 C9.91576597,9.8645449 9.91576597,9.90584014 9.91392323,9.9489606 L9.91392323,20.0964122 C9.91392323,23.0527869 12.048964,25.5159001 14.8752613,26.0559324 L20.9493821,35.228953 L20.9496124,35.228953 Z" id="Path"></path>
        </g>
        <g id="LunchRoom" transform="translate(58.9432, 7.552)" fill="currentcolor" fill-rule="nonzero">
            <polygon id="Path" points="12.3566559 17.5329383 12.3566559 20.6108209 -2.02449044e-14 20.6108209 -2.02449044e-14 1.09924378 3.32256748 1.09924378 3.32256748 17.5329383"></polygon>
            <path d="M23.1481354,14.5649801 L23.1481354,6.34813284 L26.4157844,6.34813284 L26.4157844,20.6108209 L23.3952685,20.6108209 L23.3952685,18.7695876 C23.0657577,19.3924924 22.5303026,19.910053 21.7889033,20.3222694 C21.0475039,20.7344859 20.1367726,20.9405941 19.0567094,20.9405941 C17.3725429,20.9405941 16.0773823,20.4321938 15.1712276,19.4153933 C14.2650728,18.3985928 13.8119954,17.0382786 13.8119954,15.3344508 L13.8119954,6.34813284 L17.0796444,6.34813284 L17.0796444,14.8947533 C17.0796444,17.0565994 18.0041053,18.1375224 19.8530272,18.1375224 C20.878172,18.1375224 21.6836429,17.8306502 22.2694399,17.2169057 C22.8552369,16.6031613 23.1481354,15.7191861 23.1481354,14.5649801 Z" id="Path"></path>
            <path d="M31.4058764,6.34813284 L31.4058764,8.24432837 C31.7353872,7.62142356 32.2799954,7.09470258 33.0397009,6.66416543 C33.7994064,6.23362828 34.7192908,6.01835971 35.7993541,6.01835971 C37.4835205,6.01835971 38.7878342,6.53134014 39.7122951,7.55730101 C40.636756,8.58326187 41.0989865,9.94815623 41.0989865,11.6519841 L41.0989865,20.6108209 L37.8313375,20.6108209 L37.8313375,12.0642005 C37.8313375,11.0565604 37.597934,10.2641888 37.131127,9.68708583 C36.66432,9.10998285 35.9549564,8.82143136 35.0030362,8.82143136 C33.9595853,8.82143136 33.1403848,9.13288376 32.5454347,9.75578857 C31.9504846,10.3786934 31.6530095,11.2397677 31.6530095,12.3390115 L31.6530095,20.6108209 L28.3853605,20.6108209 L28.3853605,6.34813284 L31.4058764,6.34813284 Z" id="Path"></path>
            <path d="M42.0251116,13.4932174 C42.0251116,11.3863335 42.6932863,9.61380292 44.0296358,8.17562563 C45.3659852,6.73744835 47.0684578,6.01835971 49.1370536,6.01835971 C51.0958124,6.01835971 52.6564122,6.57256178 53.8188532,7.68096593 C54.9812942,8.78937008 55.6723516,10.067241 55.8920255,11.5145786 L52.5419988,11.5145786 C52.340631,10.7267872 51.933319,10.0947221 51.3200628,9.6183831 C50.7068065,9.14204413 49.9699837,8.90387464 49.1095943,8.90387464 C47.9563064,8.90387464 47.0318455,9.32983161 46.3362116,10.1817455 C45.6405776,11.0336595 45.2927606,12.1374834 45.2927606,13.4932174 C45.2927606,14.8489514 45.6405776,15.9481952 46.3362116,16.7909488 C47.0318455,17.6337023 47.9563064,18.0550791 49.1095943,18.0550791 C49.9699837,18.0550791 50.7068065,17.8169096 51.3200628,17.3405707 C51.933319,16.8642317 52.340631,16.2321665 52.5419988,15.4443751 L55.8920255,15.4443751 C55.6723516,16.8917128 54.9812942,18.1695837 53.8188532,19.2779878 C52.6564122,20.386392 51.0958124,20.9405941 49.1370536,20.9405941 C47.0684578,20.9405941 45.3659852,20.2215054 44.0296358,18.7833281 C42.6932863,17.3451509 42.0251116,15.5817806 42.0251116,13.4932174 Z" id="Path"></path>
            <path d="M60.4477623,0 L60.4477623,7.88707414 C61.3081516,6.64126452 62.6902665,6.01835971 64.5941068,6.01835971 C66.2782732,6.01835971 67.5825869,6.53134014 68.5070478,7.55730101 C69.4315088,8.58326187 69.8937392,9.94815623 69.8937392,11.6519841 L69.8937392,20.6108209 L66.6260902,20.6108209 L66.6260902,12.0642005 C66.6260902,11.0565604 66.3926867,10.2641888 65.9258797,9.68708583 C65.4590727,9.10998285 64.7497091,8.82143136 63.797789,8.82143136 C62.754338,8.82143136 61.9351375,9.13288376 61.3401874,9.75578857 C60.7452373,10.3786934 60.4477623,11.248928 60.4477623,12.3664926 L60.4477623,20.6108209 L57.1801132,20.6108209 L57.1801132,0 L60.4477623,0 Z" id="Path"></path>
            <path d="M86.7362357,20.6108209 L82.8370243,20.6108209 L78.8828944,12.9161144 L74.407039,12.9161144 L74.407039,20.6108209 L71.0844715,20.6108209 L71.0844715,1.09924378 L79.651753,1.09924378 C81.7386549,1.09924378 83.3312905,1.63970531 84.4296599,2.72062836 C85.5280293,3.80155141 86.077214,5.23056833 86.077214,7.00767911 C86.077214,8.34509238 85.7568563,9.49471817 85.1161408,10.4565565 C84.4754253,11.4183948 83.5235051,12.100842 82.2603803,12.503898 L86.7362357,20.6108209 Z M81.9583287,9.06876121 C82.4709011,8.55578077 82.7271873,7.86875341 82.7271873,7.00767911 C82.7271873,6.14660482 82.4709011,5.45957745 81.9583287,4.94659702 C81.4457563,4.43361659 80.6860508,4.17712637 79.6792122,4.17712637 L74.407039,4.17712637 L74.407039,9.83823185 L79.6792122,9.83823185 C80.6860508,9.83823185 81.4457563,9.58174164 81.9583287,9.06876121 Z" id="Shape"></path>
            <path d="M94.3025032,20.9405941 C92.1057644,20.9405941 90.3254906,20.2169252 88.9616819,18.7695876 C87.5978732,17.3222499 86.9159689,15.5634599 86.9159689,13.4932174 C86.9159689,11.422975 87.5978732,9.65960474 88.9616819,8.20310673 C90.3254906,6.74660872 92.1057644,6.01835971 94.3025032,6.01835971 C96.5175482,6.01835971 98.306975,6.74660872 99.6707837,8.20310673 C101.034592,9.65960474 101.716497,11.422975 101.716497,13.4932174 C101.716497,15.5634599 101.034592,17.3222499 99.6707837,18.7695876 C98.306975,20.2169252 96.5175482,20.9405941 94.3025032,20.9405941 Z M90.1836179,13.4932174 C90.1836179,14.8489514 90.5726237,15.9481952 91.3506354,16.7909488 C92.128647,17.6337023 93.112603,18.0550791 94.3025032,18.0550791 C95.5107095,18.0550791 96.5038186,17.6337023 97.2818302,16.7909488 C98.0598419,15.9481952 98.4488477,14.8489514 98.4488477,13.4932174 C98.4488477,12.1191627 98.0598419,11.0107586 97.2818302,10.168005 C96.5038186,9.32525142 95.5107095,8.90387464 94.3025032,8.90387464 C93.112603,8.90387464 92.128647,9.32525142 91.3506354,10.168005 C90.5726237,11.0107586 90.1836179,12.1191627 90.1836179,13.4932174 Z" id="Shape"></path>
            <path d="M110.004193,20.9405941 C107.807454,20.9405941 106.027181,20.2169252 104.663372,18.7695876 C103.299563,17.3222499 102.617659,15.5634599 102.617659,13.4932174 C102.617659,11.422975 103.299563,9.65960474 104.663372,8.20310673 C106.027181,6.74660872 107.807454,6.01835971 110.004193,6.01835971 C112.219238,6.01835971 114.008665,6.74660872 115.372474,8.20310673 C116.736282,9.65960474 117.418187,11.422975 117.418187,13.4932174 C117.418187,15.5634599 116.736282,17.3222499 115.372474,18.7695876 C114.008665,20.2169252 112.219238,20.9405941 110.004193,20.9405941 Z M105.885308,13.4932174 C105.885308,14.8489514 106.274314,15.9481952 107.052325,16.7909488 C107.830337,17.6337023 108.814293,18.0550791 110.004193,18.0550791 C111.2124,18.0550791 112.205509,17.6337023 112.98352,16.7909488 C113.761532,15.9481952 114.150538,14.8489514 114.150538,13.4932174 C114.150538,12.1191627 113.761532,11.0107586 112.98352,10.168005 C112.205509,9.32525142 111.2124,8.90387464 110.004193,8.90387464 C108.814293,8.90387464 107.830337,9.32525142 107.052325,10.168005 C106.274314,11.0107586 105.885308,12.1191627 105.885308,13.4932174 Z" id="Shape"></path>
            <path d="M130.865723,12.4214547 L130.865723,20.6108209 L127.598074,20.6108209 L127.598074,12.0642005 C127.598074,9.90235441 126.701073,8.82143136 124.907069,8.82143136 C123.936843,8.82143136 123.163408,9.13288376 122.586764,9.75578857 C122.01012,10.3786934 121.721798,11.2306073 121.721798,12.3115304 L121.721798,20.6108209 L118.454149,20.6108209 L118.454149,6.34813284 L121.474665,6.34813284 L121.474665,8.24432837 C121.822482,7.60310283 122.35336,7.07180167 123.0673,6.65042489 C123.781241,6.2290481 124.669089,6.01835971 125.730846,6.01835971 C127.707911,6.01835971 129.135791,6.76950963 130.014487,8.27180946 C131.222693,6.76950963 132.833635,6.01835971 134.847312,6.01835971 C136.513173,6.01835971 137.794604,6.53592032 138.691605,7.57104155 C139.588607,8.60616278 140.037108,9.96647696 140.037108,11.6519841 L140.037108,20.6108209 L136.769459,20.6108209 L136.769459,12.0642005 C136.769459,9.90235441 135.872457,8.82143136 134.078454,8.82143136 C133.089921,8.82143136 132.307333,9.13746394 131.730689,9.76952912 C131.154045,10.4015943 130.865723,11.2855695 130.865723,12.4214547 Z" id="Path"></path>
        </g>
    </g>
</svg>