<?xml version="1.0" encoding="UTF-8"?>
<svg width="46px" height="36px" viewBox="0 0 46 36" version="1.1" xmlns="http://www.w3.org/2000/svg" xmlns:xlink="http://www.w3.org/1999/xlink">
    <title>Icon / Logo / Graphics</title>
    <g id="Icon-/-Logo-/-Graphics" stroke="none" stroke-width="1" fill="none" fill-rule="evenodd">
        <g id="Lunchroom-Logo-Finalized" fill="currentcolor" fill-rule="nonzero">
            <path d="M46,15.4295481 L36.0941801,15.4295481 C36.0941801,13.993813 34.9213707,12.8306165 33.4737706,12.8306165 C32.3515927,12.8306165 31.3944275,13.5311365 31.0238971,14.5149232 C30.914349,14.7995594 30.8552022,15.106793 30.8552022,15.4295481 L30.8552022,26.0494225 C30.6637231,26.5205445 30.44969,26.9795689 30.2131029,27.4248978 C28.285194,31.0799735 24.9672208,33.8996293 20.9530645,35.1904214 L20.9530645,15.7504771 C20.9512234,15.6434247 20.9496124,15.5366005 20.9496124,15.4295481 C20.9496124,12.8411163 21.748209,10.437116 23.1141084,8.44740177 C23.5543722,7.80371768 24.0553937,7.20500017 24.6070468,6.65604264 L24.6088879,6.65604264 C26.8760277,4.4006375 30.0096564,3.0062169 33.4740007,3.0062169 C40.3921027,3.0062169 46,8.5681496 46,15.4295481 L46,15.4295481 Z" id="Path"></path>
            <path d="M20.9496124,35.228953 C19.403326,35.7206174 17.7540767,35.9861847 16.0421743,35.9861847 C13.1200547,35.9861847 10.3805963,35.2116136 8.020972,33.8611905 C3.22524984,31.1135736 0,25.9785894 0,20.0966403 C0,19.9449202 0.00184273666,19.7929719 0.00691026247,19.643077 L0,19.643077 L0,0 C4.027992,0 7.49348863,2.37869753 9.0450729,5.79388296 C9.27495429,6.29763935 9.46291343,6.82352635 9.60411313,7.36698093 C9.80796587,8.15181879 9.91576597,8.97452964 9.91576597,9.82142444 C9.91576597,9.8645449 9.91576597,9.90584014 9.91392323,9.9489606 L9.91392323,20.0964122 C9.91392323,23.0527869 12.048964,25.5159001 14.8752613,26.0559324 L20.9493821,35.228953 L20.9496124,35.228953 Z" id="Path"></path>
        </g>
    </g>
</svg>